<?xml version="1.0" standalone="no"?>
<!DOCTYPE svg PUBLIC "-//W3C//DTD SVG 20010904//EN"
 "http://www.w3.org/TR/2001/REC-SVG-20010904/DTD/svg10.dtd">
<svg version="1.0" xmlns="http://www.w3.org/2000/svg"
 width="558.000000pt" height="558.000000pt" viewBox="0 0 558.000000 558.000000"
 preserveAspectRatio="xMidYMid meet">
<metadata>
Created by potrace 1.11, written by Peter Selinger 2001-2013
</metadata>
<g transform="translate(0.000000,558.000000) scale(0.100000,-0.100000)"
fill="#000000" stroke="none">
<path d="M380 5564 c-92 -25 -162 -65 -230 -134 -37 -37 -77 -89 -92 -120 -61
-124 -57 49 -57 -2520 0 -2565 -3 -2397 56 -2520 33 -69 140 -176 213 -212
123 -62 -47 -58 2519 -58 2540 0 2394 -3 2516 55 75 36 180 139 217 215 60
123 57 -49 57 2512 1 1668 -2 2363 -10 2400 -38 183 -193 340 -379 385 -45 10
-499 13 -2405 12 -2035 0 -2357 -2 -2405 -15z"/>
</g>
</svg>
